<?xml version="1.0" encoding="utf-8"?>
<!-- Generator: Adobe Illustrator 19.0.0, SVG Export Plug-In . SVG Version: 6.00 Build 0)  -->
<svg version="1.1" id="Layer_1" xmlns="http://www.w3.org/2000/svg" xmlns:xlink="http://www.w3.org/1999/xlink" x="0px" y="0px"
	 viewBox="0 0 50 50" style="enable-background:new 0 0 50 50;" xml:space="preserve">
<path d="M50.7,9.7c-12.2,6.2-18.3,14.7-18.3,25.6c0,3.6,1.1,6.7,3.4,9.3c2.3,2.5,5,3.8,8.1,3.8c2.8,0,5.1-1,7-2.9
	c1.8-2,2.8-4.4,2.8-7.2c0-2.7-1-5.1-2.9-7.1c-1.9-2-4.3-3.2-7.2-3.6c0-4.5,3.4-8.5,10.2-11.8L50.7,9.7z M19.9,9.7
	C7.7,15.9,1.6,24.4,1.6,35.3c0,3.6,1.1,6.7,3.4,9.3c2.3,2.5,5,3.8,8.1,3.8c2.8,0,5.1-1,7-2.9c1.9-2,2.8-4.4,2.8-7.2
	c0-2.7-1-5.1-2.9-7.1c-1.9-2-4.3-3.2-7.3-3.6c0-4.5,3.4-8.5,10.3-11.8L19.9,9.7z"/>
</svg>
